<svg width="1424" height="808" viewBox="0 0 1424 808" fill="none" xmlns="http://www.w3.org/2000/svg">
<path fill-rule="evenodd" clip-rule="evenodd" d="M379.061 280.913L363.093 233.007C354.632 207.624 326.139 195.057 301.689 205.923C284.264 213.668 273.55 231.491 274.885 250.512L277.018 280.913L270.79 288C265.899 293.565 263.09 300.655 262.842 308.06L260.119 389.446C259.55 406.453 265.617 422.116 275.93 433.967L275.18 534.901C259.457 536.572 245.414 539.39 234.469 543.151C227.808 545.44 221.607 548.308 216.832 551.972C212.256 555.482 207 561.332 207 569.649C207 579.429 214.161 585.784 219.643 589.293C225.682 593.158 233.626 596.189 242.371 598.556C260.035 603.338 283.764 606.149 309.5 606.149C335.236 606.149 358.965 603.338 376.629 598.556C385.374 596.189 393.318 593.158 399.357 589.293C404.76 585.834 411.793 579.612 411.996 570.071C412.654 567.587 413 564.995 413 562.355C413 547.727 402.51 535.204 388.108 532.639L380.623 531.306C378.238 530.881 376.5 528.807 376.5 526.383V482.241C389.036 477.732 398 465.738 398 451.649V325.68C398 308.738 391.114 292.607 379.061 280.913ZM279.632 277.938C279.634 277.936 279.635 277.934 279.637 277.932L279.632 277.938Z" fill="#F2FE67"/>
<path fill-rule="evenodd" clip-rule="evenodd" d="M306.562 215.885C324.539 207.895 345.488 217.135 351.709 235.798L368.656 286.639C379.654 296.191 386 310.06 386 324.676V450.645C386 461.967 376.822 471.145 365.5 471.145C365.165 471.145 364.831 471.137 364.5 471.121V525.379C364.5 533.618 370.408 540.671 378.519 542.116L386.004 543.448C394.68 544.994 401 552.538 401 561.351C401 563.502 400.619 565.593 399.91 567.541C399.97 567.907 400 568.275 400 568.644C400 582.176 359.482 593.144 309.5 593.144C259.518 593.144 219 582.176 219 568.644C219 557.206 247.952 547.599 287.098 544.901L287.966 428.241C277.762 418.298 271.597 404.255 272.112 388.843L274.835 307.457C274.99 302.828 276.746 298.396 279.804 294.917L288.651 284.849C289.091 284.348 289.313 283.692 289.266 283.026L286.855 248.668C285.874 234.682 293.751 221.578 306.562 215.885ZM319 466.674V555.99C317.503 556.265 315.829 556.391 314.007 556.372C310.477 556.333 306.804 555.753 303.565 555.019C301.099 554.459 299.046 552.017 299.071 548.546L299.719 461.416C303.865 463.363 313.295 466.38 319 466.674ZM345 469.645C345 474.589 348.121 478.805 352.5 480.43V525.379C352.5 539.434 362.578 551.466 376.415 553.93L383.9 555.263C386.851 555.788 389 558.354 389 561.351C389 564.297 386.997 566.594 384.403 567.026C371.869 569.113 350.129 571.808 333.342 569.267C332.232 569.098 331 567.99 331 566.033V437.517C331 433.998 328.147 431.145 324.628 431.145C301.704 431.145 283.339 412.155 284.106 389.244L286.829 307.858C286.891 306.005 287.594 304.231 288.818 302.838L297.665 292.77C300.222 289.861 301.508 286.05 301.237 282.186L298.826 247.828C298.198 238.879 303.238 230.494 311.436 226.85C322.939 221.738 336.344 227.65 340.324 239.592L357.717 291.769C358.135 293.023 358.9 294.134 359.923 294.971C368.833 302.261 374 313.164 374 324.676V450.645C374 455.339 370.194 459.145 365.5 459.145C360.805 459.145 357 455.339 357 450.645V334.145H345V450.645L345 450.729V469.645Z" fill="black"/>
<path fill-rule="evenodd" clip-rule="evenodd" d="M318.917 466.678V555.993C317.42 556.268 315.746 556.395 313.924 556.375C310.394 556.337 306.721 555.756 303.482 555.022C301.016 554.463 298.963 552.02 298.989 548.549L299.637 461.419C303.783 463.366 313.212 466.383 318.917 466.678ZM344.917 469.648C344.917 474.592 348.038 478.808 352.417 480.433V525.382C352.417 539.437 362.496 551.469 376.333 553.933L383.817 555.266C386.768 555.791 388.917 558.357 388.917 561.354C388.917 564.3 386.915 566.597 384.321 567.029C371.786 569.117 350.047 571.811 333.259 569.27C332.15 569.102 330.917 567.994 330.917 566.037V437.52C330.917 434.001 328.064 431.148 324.545 431.148C301.622 431.148 283.257 412.158 284.023 389.247L286.746 307.862C286.808 306.008 287.511 304.234 288.735 302.841L297.583 292.773C300.139 289.864 301.425 286.053 301.154 282.19L298.743 247.831C298.115 238.882 303.156 230.497 311.353 226.854C322.856 221.741 336.261 227.654 340.242 239.596L357.634 291.772C358.052 293.027 358.817 294.137 359.841 294.974C368.75 302.264 373.917 313.168 373.917 324.679V450.648C373.917 455.343 370.112 459.148 365.417 459.148C360.723 459.148 356.917 455.343 356.917 450.648V334.148H344.917V450.648L344.917 450.732V469.648Z" fill="#F2FE67"/>
<g clip-path="url(#clip0)">
<path d="M498.89 514.075C493.116 511.063 488.849 507.046 485.836 501.523C482.824 496 481.317 489.724 481.317 482.444L481.066 446.797H465V421.944H481.317V397.343L514.454 390.062L514.203 421.944H548.846V446.797H513.952L514.203 476.921C514.203 480.185 514.705 483.197 515.961 485.206C517.216 487.465 518.722 489.222 520.73 490.226C522.739 491.482 524.998 491.984 527.508 491.984C531.023 491.984 534.286 491.231 537.048 489.724C539.809 488.218 542.571 485.708 545.332 482.695L553.365 504.033C549.6 508.552 544.579 512.067 538.554 514.577C532.529 517.087 526.002 518.343 519.475 518.343C511.442 518.594 504.664 517.087 498.89 514.075Z" fill="white"/>
<path d="M569.432 406.38C565.917 403.116 564.16 398.598 564.16 393.075C564.16 389.56 564.913 386.548 566.419 383.786C567.926 381.025 570.185 378.766 573.197 377.259C576.21 375.753 579.473 375 582.988 375C588.762 375 593.28 376.757 596.795 380.021C600.31 383.284 602.067 387.803 602.067 393.075C602.067 396.589 601.314 399.853 599.807 402.614C598.301 405.376 596.042 407.635 593.029 409.141C590.017 410.647 586.754 411.4 582.988 411.4C577.465 411.4 572.946 409.643 569.432 406.38ZM566.671 421.944H599.556V515.079H566.671V421.944Z" fill="white"/>
<path d="M696.959 423.197C701.227 425.457 704.49 428.971 707 433.49C709.26 438.008 710.515 443.28 710.515 449.556V515.077H677.378V460.1C677.378 455.832 676.374 452.569 674.114 450.058C672.106 447.799 669.094 446.544 665.328 446.544C662.316 446.544 659.805 447.297 657.546 448.552C655.287 449.807 653.529 451.815 652.023 454.326C650.768 456.836 650.015 459.849 650.015 463.363V514.826H617.129V421.942H644.492L649.764 439.264H650.015C653.278 432.988 657.546 428.218 662.818 424.703C668.09 421.189 674.365 419.432 681.144 419.432C687.419 419.683 692.691 420.938 696.959 423.197Z" fill="white"/>
<path d="M746.413 554.742C740.639 553.487 735.367 551.981 730.598 549.721C725.828 547.462 721.811 544.952 718.548 541.939L728.84 517.589C731.351 520.099 734.363 522.107 737.878 523.865C741.392 525.622 745.158 526.877 748.923 527.881C752.689 528.885 756.706 529.387 760.722 529.387C765.994 529.387 770.764 528.383 774.78 526.626C778.797 524.869 781.809 522.107 784.069 518.593C786.328 515.078 787.332 510.811 787.332 506.292V498.51H787.081C784.069 504.535 780.303 509.304 775.282 512.568C770.262 515.831 764.739 517.589 758.714 517.589C751.936 517.589 746.162 516.082 741.643 513.321C737.125 510.56 733.359 506.543 730.598 501.271C727.836 495.999 726.581 489.974 726.581 482.945V421.943H759.718V475.916C759.718 478.929 760.22 481.69 761.224 483.95C762.228 486.209 763.735 487.966 765.492 489.221C767.249 490.477 769.508 490.979 772.019 490.979C774.78 490.979 777.04 490.226 779.55 488.97C781.809 487.715 783.567 485.958 785.073 483.448C786.328 480.937 787.081 478.176 787.081 475.163V421.943H819.967V507.547C819.967 517.338 817.708 526.124 812.938 533.404C808.419 540.684 801.641 546.458 793.106 550.474C784.571 554.491 774.529 556.499 763.484 556.499C757.961 556.499 751.936 555.997 746.413 554.742Z" fill="white"/>
<path d="M837.289 421.945H863.397L868.418 439.769H868.669C871.179 433.493 875.196 428.472 880.97 424.957C886.743 421.443 893.019 419.686 899.797 419.686C906.826 419.686 912.851 421.443 917.37 424.957C921.889 428.472 925.403 433.493 927.161 440.271H927.412C930.424 433.493 934.943 428.472 940.717 424.957C946.49 421.443 952.766 419.686 959.795 419.686C965.569 419.686 970.59 420.941 974.858 423.451C979.125 425.961 982.389 429.727 984.397 434.748C986.656 439.769 987.66 445.542 987.66 452.069V515.08H955.026L954.775 460.103C954.775 455.835 953.77 452.571 951.511 450.563C949.503 448.304 946.49 447.3 942.976 447.3C939.963 447.3 937.704 448.053 935.445 449.308C933.436 450.563 931.679 452.571 930.675 455.082C929.671 457.592 929.169 460.605 929.169 463.868L928.918 515.08H896.032V460.103C896.032 455.835 895.028 452.571 893.019 450.563C891.011 448.304 887.999 447.3 884.233 447.3C879.714 447.3 876.2 448.806 873.941 451.818C871.43 454.831 870.175 458.847 870.175 463.868V515.08H837.038V421.945H837.289Z" fill="white"/>
<path d="M1015.78 514.077C1011.01 511.818 1006.99 508.805 1004.48 504.788C1001.72 500.772 1000.46 496.253 1000.46 490.981C1000.46 482.697 1003.98 475.919 1011.01 470.396C1018.04 465.125 1028.08 461.61 1041.13 460.355L1056.95 458.849C1058.95 458.598 1060.46 457.844 1061.97 456.589C1063.47 455.334 1063.98 453.828 1063.98 451.82C1063.98 449.811 1063.47 448.054 1062.47 446.548C1061.46 445.042 1059.96 443.786 1057.95 443.033C1055.94 442.029 1053.93 441.778 1051.42 441.778C1048.41 441.778 1045.9 442.531 1043.64 443.786C1041.38 445.042 1039.62 446.799 1038.37 449.309C1037.11 451.569 1036.11 454.33 1035.86 457.091L1003.98 452.824C1004.48 446.297 1006.74 440.272 1010.5 435C1014.52 429.728 1019.79 425.712 1026.57 422.699C1033.35 419.938 1041.38 418.432 1050.42 418.432C1059.71 418.432 1067.74 419.938 1074.77 423.201C1081.8 426.465 1087.07 430.984 1090.59 436.757C1094.35 442.531 1096.11 449.309 1096.11 457.091V489.475C1096.11 491.483 1096.61 492.99 1097.36 494.245C1098.12 495.249 1099.37 495.751 1100.88 495.751C1101.88 495.751 1102.89 495.5 1104.14 494.998C1105.4 494.496 1106.65 493.743 1107.66 492.488L1113.68 509.558C1110.67 512.069 1106.9 514.077 1102.38 515.583C1097.87 517.089 1093.1 517.842 1088.58 517.842C1084.56 517.842 1080.79 517.089 1077.28 515.834C1074.02 514.328 1071 512.571 1068.75 510.311C1066.49 508.052 1064.98 505.291 1064.48 502.278L1064.23 500.019H1063.98C1061.97 503.533 1059.46 506.797 1056.19 509.307C1053.18 512.069 1049.42 514.077 1045.4 515.583C1041.13 517.089 1036.86 517.842 1032.09 517.842C1026.07 517.34 1020.8 516.336 1015.78 514.077ZM1054.69 493.241C1057.45 491.735 1059.46 489.726 1060.71 487.216C1062.22 484.454 1062.97 481.693 1062.97 478.43V475.417L1049.67 476.672C1043.89 477.174 1039.88 478.43 1037.37 480.187C1034.86 481.944 1033.6 484.203 1033.6 486.965C1033.6 489.475 1034.6 491.483 1036.86 492.99C1039.12 494.496 1042.14 495.249 1045.9 495.249C1049.16 495.5 1052.18 494.747 1054.69 493.241Z" fill="white"/>
<path d="M1204.31 423.197C1208.57 425.457 1211.84 428.971 1214.35 433.49C1216.61 438.008 1217.86 443.28 1217.86 449.556V515.077H1184.72V460.1C1184.72 455.832 1183.72 452.569 1181.46 450.058C1179.45 447.799 1176.44 446.544 1172.67 446.544C1169.66 446.544 1167.15 447.297 1164.89 448.552C1162.63 449.807 1160.88 451.815 1159.37 454.326C1158.11 456.836 1157.36 459.849 1157.36 463.363V514.826H1124.22V421.942H1151.59L1156.86 439.264H1157.11C1160.37 432.988 1164.64 428.218 1169.91 424.703C1175.19 421.189 1181.46 419.432 1188.24 419.432C1194.77 419.683 1199.79 420.938 1204.31 423.197Z" fill="white"/>
</g>
<defs>
<clipPath id="clip0">
<rect width="752.61" height="181.5" fill="white" transform="translate(465 375)"/>
</clipPath>
</defs>
</svg>
