<svg width="800" height="800" viewBox="0 0 800 800" fill="none" xmlns="http://www.w3.org/2000/svg">
<path fill-rule="evenodd" clip-rule="evenodd" d="M396.562 211.885C414.539 203.895 435.488 213.135 441.709 231.798L458.656 282.639C469.654 292.191 476 306.06 476 320.676V446.645C476 457.967 466.822 467.145 455.5 467.145C455.165 467.145 454.831 467.137 454.5 467.121V521.379C454.5 529.618 460.408 536.671 468.519 538.116L476.004 539.448C484.68 540.994 491 548.538 491 557.351C491 559.502 490.619 561.593 489.91 563.541C489.97 563.907 490 564.275 490 564.644C490 578.176 449.482 589.144 399.5 589.144C349.518 589.144 309 578.176 309 564.644C309 553.206 337.952 543.599 377.098 540.901L377.966 424.241C367.762 414.298 361.597 400.255 362.112 384.843L364.835 303.457C364.99 298.828 366.746 294.396 369.804 290.917L378.651 280.849C379.091 280.348 379.313 279.692 379.266 279.026L376.855 244.668C375.874 230.682 383.751 217.578 396.562 211.885ZM409 462.674V551.99C407.503 552.265 405.829 552.391 404.007 552.372C400.477 552.333 396.804 551.753 393.565 551.019C391.099 550.459 389.046 548.017 389.071 544.546L389.719 457.416C393.865 459.363 403.295 462.38 409 462.674ZM435 465.645C435 470.589 438.121 474.805 442.5 476.43V521.379C442.5 535.434 452.578 547.466 466.415 549.93L473.9 551.263C476.851 551.788 479 554.354 479 557.351C479 560.297 476.997 562.594 474.403 563.026C461.869 565.113 440.129 567.808 423.342 565.267C422.232 565.098 421 563.99 421 562.033V433.517C421 429.998 418.147 427.145 414.628 427.145C391.704 427.145 373.339 408.155 374.106 385.244L376.829 303.858C376.891 302.005 377.594 300.231 378.818 298.838L387.665 288.77C390.222 285.861 391.508 282.05 391.237 278.186L388.826 243.828C388.198 234.879 393.238 226.494 401.436 222.85C412.939 217.738 426.344 223.65 430.324 235.592L447.717 287.769C448.135 289.023 448.9 290.134 449.923 290.971C458.833 298.261 464 309.164 464 320.676V446.645C464 451.339 460.194 455.145 455.5 455.145C450.805 455.145 447 451.339 447 446.645V330.145H435V446.645L435 446.729V465.645Z" fill="black"/>
<path fill-rule="evenodd" clip-rule="evenodd" d="M408.917 462.678V551.993C407.42 552.268 405.746 552.395 403.924 552.375C400.394 552.337 396.721 551.756 393.482 551.022C391.016 550.463 388.963 548.02 388.989 544.549L389.637 457.419C393.783 459.366 403.212 462.383 408.917 462.678ZM434.917 465.648C434.917 470.592 438.038 474.808 442.417 476.433V521.382C442.417 535.437 452.496 547.469 466.333 549.933L473.817 551.266C476.768 551.791 478.917 554.357 478.917 557.354C478.917 560.3 476.915 562.597 474.321 563.029C461.786 565.117 440.047 567.811 423.259 565.27C422.15 565.102 420.917 563.994 420.917 562.037V433.52C420.917 430.001 418.064 427.148 414.545 427.148C391.622 427.148 373.257 408.158 374.023 385.247L376.746 303.862C376.808 302.008 377.511 300.234 378.735 298.841L387.583 288.773C390.139 285.864 391.425 282.053 391.154 278.19L388.743 243.831C388.115 234.882 393.156 226.497 401.353 222.854C412.856 217.741 426.261 223.654 430.242 235.596L447.634 287.772C448.052 289.027 448.817 290.137 449.841 290.974C458.75 298.264 463.917 309.168 463.917 320.679V446.648C463.917 451.343 460.112 455.148 455.417 455.148C450.723 455.148 446.917 451.343 446.917 446.648V330.148H434.917V446.648L434.917 446.732V465.648Z" fill="white"/>
</svg>
