<svg width="1024" height="1024" viewBox="0 0 1024 1024" fill="none" xmlns="http://www.w3.org/2000/svg">
<path d="M0 243.931C0 158.547 0 115.855 16.6168 83.2427C31.2333 54.5562 54.5562 31.2333 83.2427 16.6168C115.855 0 158.547 0 243.931 0H780.069C865.453 0 908.145 0 940.757 16.6168C969.444 31.2333 992.767 54.5562 1007.38 83.2427C1024 115.855 1024 158.547 1024 243.931V780.069C1024 865.453 1024 908.145 1007.38 940.757C992.767 969.444 969.444 992.767 940.757 1007.38C908.145 1024 865.453 1024 780.069 1024H243.931C158.547 1024 115.855 1024 83.2427 1007.38C54.5562 992.767 31.2333 969.444 16.6168 940.757C0 908.145 0 865.453 0 780.069V243.931Z" fill="#F2FE67"/>
<mask id="mask0" mask-type="alpha" maskUnits="userSpaceOnUse" x="0" y="0" width="1024" height="1024">
<path d="M0 243.931C0 158.547 0 115.855 16.6168 83.2427C31.2333 54.5562 54.5562 31.2333 83.2427 16.6168C115.855 0 158.547 0 243.931 0H780.069C865.453 0 908.145 0 940.757 16.6168C969.444 31.2333 992.767 54.5562 1007.38 83.2427C1024 115.855 1024 158.547 1024 243.931V780.069C1024 865.453 1024 908.145 1007.38 940.757C992.767 969.444 969.444 992.767 940.757 1007.38C908.145 1024 865.453 1024 780.069 1024H243.931C158.547 1024 115.855 1024 83.2427 1007.38C54.5562 992.767 31.2333 969.444 16.6168 940.757C0 908.145 0 865.453 0 780.069V243.931Z" fill="#F2FE67"/>
</mask>
<g mask="url(#mask0)">
<path fill-rule="evenodd" clip-rule="evenodd" d="M484.991 -553.337C551.858 -583.055 629.781 -548.685 652.92 -479.267L715.958 -290.153C756.869 -254.624 780.472 -203.035 780.472 -148.67V319.892C780.472 362.006 746.332 396.145 704.219 396.145C702.972 396.145 701.732 396.115 700.499 396.056V597.878C700.499 628.524 722.475 654.759 752.647 660.132L780.487 665.09C812.76 670.837 836.267 698.9 836.267 731.681C836.267 739.681 834.851 747.461 832.213 754.706C832.435 756.067 832.548 757.435 832.548 758.811C832.548 809.142 681.834 849.942 495.918 849.942C310.003 849.942 159.289 809.142 159.289 758.811C159.289 716.265 266.98 680.53 412.591 670.492L415.818 236.558C377.863 199.574 354.932 147.339 356.85 90.0098L366.978 -212.718C367.554 -229.937 374.085 -246.423 385.458 -259.364L418.368 -296.813C420.005 -298.677 420.829 -301.118 420.656 -303.592L411.687 -431.394C408.036 -483.415 437.337 -532.157 484.991 -553.337ZM531.255 379.517V711.741C525.687 712.763 519.46 713.233 512.682 713.16C499.552 713.018 485.89 710.858 473.842 708.127C464.669 706.047 457.032 696.962 457.128 684.05L459.537 359.958C474.959 367.199 510.034 378.421 531.255 379.517ZM627.966 390.565C627.966 408.957 639.574 424.638 655.863 430.682V597.878C655.863 650.157 693.351 694.911 744.821 704.077L772.661 709.035C783.637 710.989 791.631 720.533 791.631 731.681C791.631 742.64 784.183 751.183 774.533 752.79C727.91 760.555 647.046 770.578 584.603 761.125C580.475 760.5 575.89 756.378 575.89 749.098V271.06C575.89 257.97 565.279 247.359 552.19 247.359C466.921 247.359 398.609 176.723 401.461 91.5024L411.589 -211.226C411.82 -218.119 414.434 -224.718 418.987 -229.899L451.897 -267.348C461.407 -278.17 466.19 -292.346 465.182 -306.717L456.213 -434.519C453.877 -467.806 472.627 -498.996 503.12 -512.548C545.907 -531.565 595.768 -509.572 610.575 -465.152L675.268 -271.072C676.823 -266.406 679.669 -262.277 683.476 -259.162C716.616 -232.047 735.836 -191.489 735.836 -148.67V319.892C735.836 337.354 721.68 351.509 704.219 351.509C686.757 351.509 672.602 337.354 672.602 319.892V-113.448H627.966V319.892L627.966 320.204V390.565Z" fill="black"/>
<path fill-rule="evenodd" clip-rule="evenodd" d="M530.946 379.532V711.756C525.379 712.778 519.152 713.249 512.373 713.175C499.244 713.033 485.582 710.874 473.533 708.142C464.361 706.063 456.724 696.977 456.82 684.066L459.229 359.973C474.651 367.214 509.726 378.436 530.946 379.532ZM627.658 390.58C627.658 408.972 639.266 424.653 655.555 430.697V597.893C655.555 650.172 693.043 694.926 744.513 704.092L772.353 709.05C783.329 711.005 791.323 720.548 791.323 731.696C791.323 742.655 783.875 751.198 774.225 752.805C727.602 760.571 646.737 770.594 584.295 761.14C580.167 760.515 575.582 756.394 575.582 749.113V271.075C575.582 257.985 564.971 247.374 551.882 247.374C466.613 247.374 398.301 176.739 401.153 91.5177L411.281 -211.21C411.512 -218.103 414.126 -224.703 418.679 -229.884L451.589 -267.333C461.098 -278.154 465.882 -292.331 464.874 -306.701L455.905 -434.504C453.569 -467.791 472.318 -498.98 502.812 -512.533C545.598 -531.549 595.46 -509.556 610.267 -465.137L674.96 -271.057C676.515 -266.391 679.361 -262.261 683.168 -259.147C716.308 -232.032 735.528 -191.474 735.528 -148.654V319.908C735.528 337.369 721.372 351.525 703.911 351.525C686.449 351.525 672.294 337.369 672.294 319.908V-113.433H627.658V319.908L627.658 320.22V390.58Z" fill="#F2FE67"/>
</g>
</svg>
